<?xml version="1.0" encoding="UTF-8" standalone="no"?>
<!-- Created with Inkscape (http://www.inkscape.org/) -->

<svg
   xmlns:dc="http://purl.org/dc/elements/1.1/"
   xmlns:cc="http://creativecommons.org/ns#"
   xmlns:rdf="http://www.w3.org/1999/02/22-rdf-syntax-ns#"
   xmlns:svg="http://www.w3.org/2000/svg"
   xmlns="http://www.w3.org/2000/svg"
   xmlns:xlink="http://www.w3.org/1999/xlink"
   xmlns:sodipodi="http://sodipodi.sourceforge.net/DTD/sodipodi-0.dtd"
   xmlns:inkscape="http://www.inkscape.org/namespaces/inkscape"
   width="235"
   height="110"
   id="svg2"
   version="1.1"
   inkscape:version="0.48.3.1 r9886"
   sodipodi:docname="adobereader.svg">
  <defs
     id="defs4">
    <linearGradient
       inkscape:collect="always"
       id="linearGradient7331">
      <stop
         style="stop-color:#ffffff;stop-opacity:1"
         offset="0"
         id="stop7333" />
      <stop
         style="stop-color:#f5f5f5;stop-opacity:1"
         offset="1"
         id="stop7335" />
    </linearGradient>
    <radialGradient
       inkscape:collect="always"
       xlink:href="#linearGradient7331"
       id="radialGradient7337"
       cx="25.449562"
       cy="1018.4064"
       fx="25.449562"
       fy="1018.4064"
       r="117.5"
       gradientTransform="matrix(-0.01187713,-1.3690206,1.4373195,-0.01242947,-1293.7675,1083.1939)"
       gradientUnits="userSpaceOnUse" />
    <linearGradient
       id="linearGradient4957-163">
      <stop
         id="stop2902-9"
         offset="0"
         style="stop-color:#f4fafa;stop-opacity:1;" />
      <stop
         id="stop2904"
         offset="1.0000000"
         style="stop-color:#d7d7d7;stop-opacity:1" />
    </linearGradient>
    <linearGradient
       id="linearGradient5904-567">
      <stop
         id="stop2884"
         offset="0.0000000"
         style="stop-color:#000000;stop-opacity:0.19791669;" />
      <stop
         id="stop2886"
         offset="1"
         style="stop-color:#000000;stop-opacity:0;" />
    </linearGradient>
    <linearGradient
       id="linearGradient2057-520">
      <stop
         style="stop-color:#f5f5f5;stop-opacity:1;"
         offset="0"
         id="stop2872" />
      <stop
         style="stop-color:#d7d7d7;stop-opacity:1.0000000;"
         offset="1.0000000"
         id="stop2874" />
    </linearGradient>
    <linearGradient
       id="linearGradient4957-163-0">
      <stop
         id="stop2902"
         offset="0"
         style="stop-color:#f4fafa;stop-opacity:1;" />
      <stop
         id="stop2904-4"
         offset="1.0000000"
         style="stop-color:#d7d7d7;stop-opacity:1" />
    </linearGradient>
    <linearGradient
       inkscape:collect="always"
       xlink:href="#linearGradient4957-163-0"
       id="linearGradient4940-201"
       gradientUnits="userSpaceOnUse"
       x1="81.89402"
       y1="22.461552"
       x2="84.654594"
       y2="10.41062"
       gradientTransform="matrix(0.373185,0,0,0.36947,-1.509613,-0.729184)" />
    <linearGradient
       inkscape:collect="always"
       id="linearGradient4820-693">
      <stop
         style="stop-color:#f4fafa;stop-opacity:1;"
         offset="0"
         id="stop2896" />
      <stop
         style="stop-color:#f4fafa;stop-opacity:0.57939917"
         offset="1"
         id="stop2898" />
    </linearGradient>
    <linearGradient
       inkscape:collect="always"
       xlink:href="#linearGradient4820-693"
       id="linearGradient4826-573"
       x1="7.9148936"
       y1="3.8297873"
       x2="7.9148936"
       y2="41.371349"
       gradientUnits="userSpaceOnUse" />
    <linearGradient
       inkscape:collect="always"
       id="linearGradient2049-847">
      <stop
         style="stop-color:#030a19;stop-opacity:1;"
         offset="0"
         id="stop2890" />
      <stop
         style="stop-color:#030a19;stop-opacity:0;"
         offset="1"
         id="stop2892" />
    </linearGradient>
    <linearGradient
       inkscape:collect="always"
       xlink:href="#linearGradient2049-847"
       id="linearGradient4943-100"
       gradientUnits="userSpaceOnUse"
       gradientTransform="matrix(0.378019,0,0,0.366486,-1.594096,-1.346996)"
       x1="69.606209"
       y1="-2.7867124"
       x2="82.63073"
       y2="34.12973" />
    <linearGradient
       id="linearGradient5904-567-0">
      <stop
         id="stop2884-1"
         offset="0.0000000"
         style="stop-color:#000000;stop-opacity:0.19791669;" />
      <stop
         id="stop2886-8"
         offset="1"
         style="stop-color:#000000;stop-opacity:0;" />
    </linearGradient>
    <radialGradient
       inkscape:collect="always"
       xlink:href="#linearGradient5904-567-0"
       id="radialGradient5902-77"
       cx="60.502419"
       cy="115.07005"
       fx="60.502419"
       fy="115.07005"
       r="56.111115"
       gradientTransform="matrix(1,0,0,0.213043,0,90.55513)"
       gradientUnits="userSpaceOnUse" />
    <linearGradient
       inkscape:collect="always"
       id="linearGradient5912-613">
      <stop
         style="stop-color:#000000;stop-opacity:1;"
         offset="0"
         id="stop2878" />
      <stop
         style="stop-color:#000000;stop-opacity:0;"
         offset="1"
         id="stop2880" />
    </linearGradient>
    <linearGradient
       inkscape:collect="always"
       xlink:href="#linearGradient5912-613"
       id="linearGradient5918-889"
       x1="71.236717"
       y1="152.15218"
       x2="88.314011"
       y2="99.212555"
       gradientUnits="userSpaceOnUse"
       gradientTransform="matrix(0.368911,0,0,0.409902,1.019997,-3.067345)" />
    <linearGradient
       id="linearGradient2057-520-9">
      <stop
         style="stop-color:#f5f5f5;stop-opacity:1;"
         offset="0"
         id="stop2872-4" />
      <stop
         style="stop-color:#d7d7d7;stop-opacity:1.0000000;"
         offset="1.0000000"
         id="stop2874-8" />
    </linearGradient>
    <linearGradient
       inkscape:collect="always"
       xlink:href="#linearGradient2057-520-9"
       id="linearGradient4946-444"
       gradientUnits="userSpaceOnUse"
       x1="57.903072"
       y1="65.225105"
       x2="85.99958"
       y2="114.99323"
       gradientTransform="matrix(0.374016,0,0,0.37836,-1.630407,-0.678575)" />
    <linearGradient
       inkscape:collect="always"
       xlink:href="#linearGradient4820"
       id="linearGradient4826"
       x1="7.9148936"
       y1="3.8297873"
       x2="7.9148936"
       y2="41.371349"
       gradientUnits="userSpaceOnUse" />
    <linearGradient
       inkscape:collect="always"
       xlink:href="#linearGradient2057"
       id="linearGradient4946"
       gradientUnits="userSpaceOnUse"
       x1="57.903072"
       y1="65.225105"
       x2="85.99958"
       y2="114.99323"
       gradientTransform="matrix(0.374016,0,0,0.37836,-1.630407,-0.678575)" />
    <linearGradient
       inkscape:collect="always"
       xlink:href="#linearGradient2049"
       id="linearGradient4943"
       gradientUnits="userSpaceOnUse"
       gradientTransform="matrix(0.378019,0,0,0.366486,-1.594096,-1.346996)"
       x1="69.606209"
       y1="-2.7867124"
       x2="82.63073"
       y2="34.12973" />
    <linearGradient
       inkscape:collect="always"
       xlink:href="#linearGradient4957"
       id="linearGradient4940"
       gradientUnits="userSpaceOnUse"
       x1="81.89402"
       y1="22.461552"
       x2="84.654594"
       y2="10.41062"
       gradientTransform="matrix(0.373185,0,0,0.36947,-1.509613,-0.729184)" />
    <linearGradient
       inkscape:collect="always"
       xlink:href="#linearGradient5912"
       id="linearGradient5918"
       x1="71.236717"
       y1="152.15218"
       x2="88.314011"
       y2="99.212555"
       gradientUnits="userSpaceOnUse"
       gradientTransform="matrix(0.368911,0,0,0.409902,1.019997,-3.067345)" />
    <radialGradient
       inkscape:collect="always"
       xlink:href="#linearGradient5904"
       id="radialGradient5902"
       cx="60.502419"
       cy="115.07005"
       fx="60.502419"
       fy="115.07005"
       r="56.111115"
       gradientTransform="matrix(1,0,0,0.213043,-2.766884e-16,90.55513)"
       gradientUnits="userSpaceOnUse" />
    <linearGradient
       inkscape:collect="always"
       id="linearGradient2049">
      <stop
         style="stop-color:#0a0a0a;stop-opacity:1;"
         offset="0"
         id="stop2051" />
      <stop
         style="stop-color:#0a0a0a;stop-opacity:0;"
         offset="1"
         id="stop2053" />
    </linearGradient>
    <linearGradient
       id="linearGradient2057">
      <stop
         style="stop-color:#f0f0f0;stop-opacity:1;"
         offset="0"
         id="stop2059" />
      <stop
         style="stop-color:#dddddd;stop-opacity:1.0000000;"
         offset="1.0000000"
         id="stop2061" />
    </linearGradient>
    <linearGradient
       id="linearGradient5904">
      <stop
         id="stop5906"
         offset="0.0000000"
         style="stop-color:#000000;stop-opacity:0.19791669;" />
      <stop
         id="stop5908"
         offset="1"
         style="stop-color:#000000;stop-opacity:0;" />
    </linearGradient>
    <linearGradient
       inkscape:collect="always"
       id="linearGradient5912">
      <stop
         style="stop-color:#000000;stop-opacity:1;"
         offset="0"
         id="stop5914" />
      <stop
         style="stop-color:#000000;stop-opacity:0;"
         offset="1"
         id="stop5916" />
    </linearGradient>
    <linearGradient
       id="linearGradient4957">
      <stop
         id="stop4959"
         offset="0"
         style="stop-color:#ffffff;stop-opacity:1;" />
      <stop
         id="stop4961"
         offset="1.0000000"
         style="stop-color:#d0d0d0;stop-opacity:1" />
    </linearGradient>
    <linearGradient
       inkscape:collect="always"
       id="linearGradient4820">
      <stop
         style="stop-color:white;stop-opacity:1;"
         offset="0"
         id="stop4822" />
      <stop
         style="stop-color:white;stop-opacity:0.57939917"
         offset="1"
         id="stop4824" />
    </linearGradient>
    <inkscape:perspective
       sodipodi:type="inkscape:persp3d"
       inkscape:vp_x="0 : 24 : 1"
       inkscape:vp_y="0 : 1000 : 0"
       inkscape:vp_z="48 : 24 : 1"
       inkscape:persp3d-origin="24 : 16 : 1"
       id="perspective37" />
    <linearGradient
       inkscape:collect="always"
       xlink:href="#linearGradient4957-163-0"
       id="linearGradient7225"
       gradientUnits="userSpaceOnUse"
       gradientTransform="matrix(0.373185,0,0,0.36947,319.96256,863.48829)"
       x1="81.89402"
       y1="22.461552"
       x2="84.654594"
       y2="10.41062" />
    <linearGradient
       inkscape:collect="always"
       xlink:href="#linearGradient4820-693"
       id="linearGradient7228"
       gradientUnits="userSpaceOnUse"
       x1="7.9148936"
       y1="3.8297873"
       x2="7.9148936"
       y2="41.371349"
       gradientTransform="translate(321.47217,864.21747)" />
    <linearGradient
       inkscape:collect="always"
       xlink:href="#linearGradient2049-847"
       id="linearGradient7231"
       gradientUnits="userSpaceOnUse"
       gradientTransform="matrix(0.378019,0,0,0.366486,319.87807,862.87047)"
       x1="69.606209"
       y1="-2.7867124"
       x2="82.63073"
       y2="34.12973" />
    <linearGradient
       inkscape:collect="always"
       xlink:href="#linearGradient2057-520-9"
       id="linearGradient7234"
       gradientUnits="userSpaceOnUse"
       gradientTransform="matrix(0.374016,0,0,0.37836,319.84176,863.5389)"
       x1="57.903072"
       y1="65.225105"
       x2="85.99958"
       y2="114.99323" />
    <linearGradient
       inkscape:collect="always"
       xlink:href="#linearGradient5912-613"
       id="linearGradient7238"
       gradientUnits="userSpaceOnUse"
       gradientTransform="matrix(0.368911,0,0,0.409902,322.49217,861.15012)"
       x1="71.236717"
       y1="152.15218"
       x2="88.314011"
       y2="99.212555" />
    <radialGradient
       inkscape:collect="always"
       xlink:href="#linearGradient7331-7"
       id="radialGradient7337-5"
       cx="25.449562"
       cy="1018.4064"
       fx="25.449562"
       fy="1018.4064"
       r="117.5"
       gradientTransform="matrix(-0.01187713,-1.3690206,1.4373195,-0.01242947,-1293.7675,1083.1939)"
       gradientUnits="userSpaceOnUse" />
    <linearGradient
       inkscape:collect="always"
       id="linearGradient7331-7">
      <stop
         style="stop-color:#ffffff;stop-opacity:1"
         offset="0"
         id="stop7333-8" />
      <stop
         style="stop-color:#f5f5f5;stop-opacity:1"
         offset="1"
         id="stop7335-2" />
    </linearGradient>
    <radialGradient
       r="117.5"
       fy="1018.4064"
       fx="25.449562"
       cy="1018.4064"
       cx="25.449562"
       gradientTransform="matrix(-0.01187713,-1.3690206,1.4373195,-0.01242947,-1232.3854,217.40532)"
       gradientUnits="userSpaceOnUse"
       id="radialGradient7275"
       xlink:href="#linearGradient7331-7"
       inkscape:collect="always" />
    <filter
       inkscape:collect="always"
       id="filter7336">
      <feGaussianBlur
         inkscape:collect="always"
         stdDeviation="0.72697232"
         id="feGaussianBlur7338" />
    </filter>
  </defs>
  <sodipodi:namedview
     id="base"
     pagecolor="#ffffff"
     bordercolor="#666666"
     borderopacity="1.0"
     inkscape:pageopacity="0.0"
     inkscape:pageshadow="2"
     inkscape:zoom="1.979899"
     inkscape:cx="90.273934"
     inkscape:cy="15.952216"
     inkscape:document-units="px"
     inkscape:current-layer="layer1"
     showgrid="false"
     inkscape:showpageshadow="false"
     inkscape:window-width="1202"
     inkscape:window-height="780"
     inkscape:window-x="15"
     inkscape:window-y="20"
     inkscape:window-maximized="0"
     showguides="true"
     inkscape:guide-bbox="true"
     inkscape:snap-global="true"
     inkscape:snap-page="true">
    <sodipodi:guide
       orientation="0,1"
       position="105.05586,20.203051"
       id="guide6316" />
  </sodipodi:namedview>
  <metadata
     id="metadata7">
    <rdf:RDF>
      <cc:Work
         rdf:about="">
        <dc:format>image/svg+xml</dc:format>
        <dc:type
           rdf:resource="http://purl.org/dc/dcmitype/StillImage" />
        <dc:title />
      </cc:Work>
    </rdf:RDF>
  </metadata>
  <g
     inkscape:label="Capa 1"
     inkscape:groupmode="layer"
     id="layer1"
     transform="translate(0,-942.36218)">
    <rect
       style="fill:url(#radialGradient7337);fill-opacity:1;stroke:none"
       id="rect2985"
       width="235"
       height="110"
       x="0"
       y="942.36218" />
    <path
       style="fill:#d7d7d7;fill-opacity:1;stroke:none;opacity:0.5"
       d="m 202.6875,942.3622 c -1.69493,1.95348 -3.40472,3.91277 -5.125,5.84375 -32.04084,35.9654 -62.86957,60.20745 -88.5,69.62505 -6.28429,2.309 -16.27272,4.6511 -23.9375,5.5937 -24.63885,3.0299 -54.278261,-7.8308 -81.09375,-29.6875 l -2,-1.59375 0,7.65621 0,7.62504 7.78125,5.1563 c 7.5014,4.9466 19.75828,11.9743 23.03125,13.2187 0.867606,0.3299 1.562189,0.8021 1.5625,1.0625 3.05e-4,0.2628 -4.445606,0.3974 -9.90625,0.2813 -8.665126,-0.1837 -14.103645,0.2022 -20.78125,1.5 l -1.6875,0.3125 0,6.1562 c 0,5.1181 0.161592,6.0671 0.90625,5.7813 2.851464,-1.0942 15.195947,-2.356 23.21875,-2.375 14.65196,-0.034 25.8783,2.4818 38.53125,8.6562 2.82142,1.3769 6.31173,3.3919 9.125,5.1875 l 19.28125,0 c -4.44768,-4.0141 -10.62031,-8.8125 -11.5,-8.8125 -0.30899,0 -1.00204,-0.5057 -1.5625,-1.125 -0.56045,-0.6194 -2.53123,-1.9108 -4.375,-2.8437 -1.84377,-0.9328 -3.37439,-1.8505 -3.375,-2.0625 -7.8e-4,-0.211 2.03656,-0.2959 4.5,-0.1875 8.73613,0.3848 23.40766,-2.2247 34.9375,-6.2188 19.1639,-6.6389 38.83879,-19.0418 56.6875,-35.71875 1.94861,-1.8207 3.66274,-3.21221 3.8125,-3.0625 0.1498,0.1498 -1.53713,3.29895 -3.75,6.96871 -9.99871,16.58254 -16.66872,33.80754 -20.40625,53.06254 l 51.09375,0 c -1.62745,-6.4727 -2.81708,-12.8678 -3.40625,-18.8437 -3.07845,-31.2252 4.16373,-56.50555 22.125,-77.25005 3.87141,-4.47134 9.38436,-9.50134 15.09375,-13.90625 l -30.28125,0 z"
       id="rect2985-7"
       inkscape:connector-curvature="0" />
    <g
       id="g4744"
       transform="translate(-1434.0448,-396.42781)" />
    <g
       transform="matrix(3.2309237,0,0,2.4215357,257.47035,917.47548)"
       id="g5313" />
    <g
       id="g5820"
       transform="matrix(2.6232954,0,0,2.6232954,271.16608,917.77409)" />
    <g
       transform="matrix(2.5603596,0,0,2.5603596,294.30166,906.87327)"
       id="g3809" />
    <path
       id="path2540-9"
       style="font-size:12px;fill:#2d2d2d;fill-opacity:1;stroke:none;filter:url(#filter7336);opacity:0.22900763"
       d="m 168.4679,956.66827 c -7.79953,12.10333 28.84795,59.50043 41.70466,45.94673 7.12002,-7.43147 -4.33824,-8.10567 -9.69877,-6.61997 -14.86814,4.31567 -29.63916,12.06467 -42.15312,20.69867 -2.56347,1.7339 -18.2476,12.1725 -9.55602,15.4654 9.97182,3.7178 17.5711,-10.0844 20.24072,-16.1362 7.12906,-15.1828 9.5771,-33.55142 9.15833,-50.15091 0.005,-5.16742 -1.69903,-17.02439 -9.49253,-10.0885 -2.49672,2.30017 -0.37614,4.63644 2.12057,2.33627 2.86862,-0.61812 2.85855,14.11092 2.44224,15.50259 -0.38216,9.80387 -2.01117,19.46598 -4.24694,29.19875 -2.13262,7.9985 -5.01149,20.1026 -12.73527,25.0211 -6.00365,3.857 -4.81751,-1.735 -2.01743,-4.0704 3.3401,-2.9725 7.35365,-5.4495 11.09723,-7.6079 8.02712,-4.9538 16.45773,-9.0936 25.25846,-12.7024 3.20357,-1.5215 6.77726,-2.512 10.35095,-3.50237 5.66393,-1.5211 6.50124,2.97397 2.29047,1.16827 -8.38822,-3.32827 -15.0503,-12.88538 -20.13179,-19.46926 -3.26431,-4.21231 -15.07767,-18.336 -11.46457,-24.21073 1.82324,-2.79579 -2.72731,-2.26557 -4.04391,-0.38992 z"
       sodipodi:nodetypes="ccccccccccccccccccccc"
       inkscape:connector-curvature="0" />
    <path
       id="path2540"
       style="font-size:12px;fill:#e12d37;fill-opacity:1;stroke:none"
       d="m 171.80992,952.97484 c -7.79953,12.10333 28.84795,59.50046 41.70466,45.94673 7.12002,-7.43147 -4.33824,-8.10564 -9.69877,-6.62002 -14.86814,4.31574 -29.63916,12.06475 -42.15312,20.69875 -2.56347,1.7339 -18.2476,12.1725 -9.55602,15.4654 9.97182,3.7178 17.5711,-10.0844 20.24072,-16.1362 7.12906,-15.18279 9.5771,-33.55145 9.15833,-50.15094 0.005,-5.16742 -1.69903,-17.02439 -9.49253,-10.0885 -2.49672,2.30017 -0.37614,4.63644 2.12057,2.33627 2.86862,-0.61812 2.85855,14.11092 2.44224,15.50259 -0.38216,9.80387 -2.01117,19.46601 -4.24694,29.1988 -2.13262,7.99848 -5.01149,20.10258 -12.73527,25.02108 -6.00365,3.857 -4.81751,-1.735 -2.01743,-4.0704 3.3401,-2.9725 7.35365,-5.4495 11.09723,-7.6079 8.02712,-4.9538 16.45773,-9.0936 25.25846,-12.70239 3.20357,-1.52151 6.77726,-2.51202 10.35095,-3.50242 5.66393,-1.52109 6.50124,2.97396 2.29047,1.16832 -8.38822,-3.32831 -15.0503,-12.88542 -20.13179,-19.4693 -3.26431,-4.21231 -15.07767,-18.336 -11.46457,-24.21073 1.82324,-2.79579 -2.72731,-2.26557 -4.04391,-0.38992 z"
       sodipodi:nodetypes="ccccccccccccccccccccc"
       inkscape:connector-curvature="0" />
    <g
       style="font-size:20.7377243px;font-style:normal;font-variant:normal;font-weight:normal;font-stretch:normal;line-height:125%;letter-spacing:0px;word-spacing:0px;fill:#000000;fill-opacity:1;stroke:none;font-family:Ubuntu;-inkscape-font-specification:Ubuntu"
       id="text7310">
      <path
         d="m 47.071174,998.54429 c 0.221193,0.27651 0.497696,0.64287 0.829509,1.0991 0.345618,0.44241 0.698159,0.94011 1.057624,1.49311 0.359442,0.5392 0.711983,1.106 1.057624,1.7005 0.359441,0.5945 0.663594,1.1682 0.912459,1.7212 l -2.198198,0 c -0.276514,-0.5253 -0.580667,-1.0576 -0.91246,-1.5968 -0.317988,-0.5392 -0.642879,-1.0507 -0.974673,-1.5346 -0.331812,-0.4977 -0.663615,-0.9608 -0.995411,-1.3894 -0.317986,-0.42857 -0.608314,-0.80185 -0.870984,-1.11983 -0.179734,0.0138 -0.366373,0.0207 -0.559919,0.0207 -0.179733,10e-6 -0.366372,10e-6 -0.559919,0 l -1.804182,0 0,5.6199 -2.011559,0 0,-14.16384 c 0.566829,-0.13824 1.195873,-0.2281 1.887133,-0.26959 0.705078,-0.0553 1.347947,-0.0829 1.928608,-0.0829 2.018465,2e-5 3.553055,0.38021 4.603775,1.14058 1.064525,0.76039 1.596793,1.89405 1.596805,3.40098 -1.2e-5,0.95395 -0.255777,1.76963 -0.767296,2.44705 -0.497716,0.67744 -1.237361,1.18206 -2.218936,1.51386 m -3.048446,-6.73976 c -0.857164,10e-6 -1.513858,0.0208 -1.970084,0.0622 l 0,5.41255 1.430903,0 c 0.691252,0 1.313383,-0.0346 1.866396,-0.10369 0.552998,-0.0691 1.01614,-0.20046 1.389427,-0.39402 0.387095,-0.19354 0.684336,-0.46313 0.891722,-0.80877 0.207368,-0.35945 0.311056,-0.8295 0.311066,-1.41017 -10e-6,-0.53917 -0.103698,-0.98848 -0.311066,-1.34795 -0.207386,-0.35944 -0.490801,-0.64286 -0.850246,-0.85024 -0.345637,-0.20737 -0.760391,-0.35253 -1.244264,-0.4355 -0.470062,-0.0829 -0.974679,-0.12441 -1.513854,-0.12442"
         style=""
         id="path7341" />
      <path
         d="m 53.08317,1004.5582 0,-14.37122 8.772057,0 0,1.72124 -6.760498,0 0,4.27197 6.01394,0 0,1.67975 -6.01394,0 0,4.97706 7.278941,0 0,1.7212 -9.2905,0"
         style=""
         id="path7343" />
      <path
         d="m 74.87625,1004.5582 c -0.235039,-0.6221 -0.456241,-1.2304 -0.663607,-1.8249 -0.207388,-0.6083 -0.421677,-1.2235 -0.642869,-1.8456 l -6.511646,0 -1.306477,3.6705 -2.09451,0 c 0.553006,-1.5207 1.071448,-2.924 1.55533,-4.2097 0.483878,-1.29959 0.953932,-2.53003 1.410165,-3.69135 0.470051,-1.1613 0.933193,-2.26731 1.389427,-3.31803 0.456225,-1.06453 0.933193,-2.11524 1.430903,-3.15214 l 1.845658,0 c 0.497697,1.0369 0.974664,2.08761 1.430903,3.15214 0.45622,1.05072 0.91245,2.15673 1.36869,3.31803 0.470044,1.16132 0.947011,2.39176 1.430903,3.69135 0.483867,1.2857 1.00231,2.689 1.555329,4.2097 l -2.198199,0 m -1.887133,-5.32957 c -0.442414,-1.20278 -0.884818,-2.36409 -1.327214,-3.48394 -0.428587,-1.13365 -0.877904,-2.21892 -1.347952,-3.25582 -0.483887,1.0369 -0.947029,2.12217 -1.389428,3.25582 -0.428584,1.11985 -0.857164,2.28116 -1.285739,3.48394 l 5.350333,0"
         style=""
         id="path7345" />
      <path
         d="m 90.805091,997.36224 c -1.3e-5,1.24427 -0.193565,2.32954 -0.580656,3.25586 -0.387117,0.9124 -0.93321,1.6728 -1.63828,2.2811 -0.705094,0.5945 -1.548427,1.0438 -2.530003,1.348 -0.981593,0.2903 -2.059954,0.4355 -3.235085,0.4355 -0.580661,0 -1.22353,-0.028 -1.928608,-0.083 -0.69126,-0.041 -1.320304,-0.1313 -1.887133,-0.2696 l 0,-13.93574 c 0.566829,-0.13824 1.195873,-0.2281 1.887133,-0.26959 0.705078,-0.0553 1.347947,-0.0829 1.928608,-0.0829 1.175131,2e-5 2.253492,0.15209 3.235085,0.45623 0.981576,0.29034 1.824909,0.73966 2.530003,1.34795 0.70507,0.5945 1.251163,1.35488 1.63828,2.28115 0.387091,0.91247 0.580643,1.99083 0.580656,3.23509 m -7.818122,5.55766 c 1.907863,0 3.331852,-0.4838 4.271971,-1.4516 0.9401,-0.9816 1.410154,-2.35026 1.410166,-4.10606 -1.2e-5,-1.75579 -0.470066,-3.11756 -1.410166,-4.08533 -0.940119,-0.98158 -2.364108,-1.47237 -4.271971,-1.47238 -0.566836,10e-6 -1.00924,0.007 -1.327214,0.0207 -0.304158,0.0138 -0.518447,0.0277 -0.64287,0.0415 l 0,10.99096 c 0.124423,0.014 0.338712,0.028 0.64287,0.041 0.317974,0.014 0.760378,0.021 1.327214,0.021"
         style=""
         id="path7347" />
      <path
         d="m 93.789056,1004.5582 0,-14.37122 8.772054,0 0,1.72124 -6.760495,0 0,4.27197 6.013945,0 0,1.67975 -6.013945,0 0,4.97706 7.278945,0 0,1.7212 -9.290504,0"
         style=""
         id="path7349" />
      <path
         d="m 112.64612,998.54429 c 0.2212,0.27651 0.4977,0.64287 0.82951,1.0991 0.34562,0.44241 0.69816,0.94011 1.05763,1.49311 0.35944,0.5392 0.71198,1.106 1.05762,1.7005 0.35944,0.5945 0.6636,1.1682 0.91246,1.7212 l -2.1982,0 c -0.27651,-0.5253 -0.58066,-1.0576 -0.91246,-1.5968 -0.31798,-0.5392 -0.64288,-1.0507 -0.97467,-1.5346 -0.33181,-0.4977 -0.66362,-0.9608 -0.99541,-1.3894 -0.31799,-0.42857 -0.60831,-0.80185 -0.87099,-1.11983 -0.17973,0.0138 -0.36637,0.0207 -0.55991,0.0207 -0.17974,10e-6 -0.36638,10e-6 -0.55992,0 l -1.80418,0 0,5.6199 -2.01156,0 0,-14.16384 c 0.56683,-0.13824 1.19587,-0.2281 1.88713,-0.26959 0.70508,-0.0553 1.34795,-0.0829 1.92861,-0.0829 2.01846,2e-5 3.55305,0.38021 4.60377,1.14058 1.06453,0.76039 1.5968,1.89405 1.59681,3.40098 -1e-5,0.95395 -0.25578,1.76963 -0.7673,2.44705 -0.49771,0.67744 -1.23736,1.18206 -2.21894,1.51386 m -3.04844,-6.73976 c -0.85716,10e-6 -1.51386,0.0208 -1.97008,0.0622 l 0,5.41255 1.4309,0 c 0.69125,0 1.31338,-0.0346 1.86639,-0.10369 0.553,-0.0691 1.01614,-0.20046 1.38943,-0.39402 0.3871,-0.19354 0.68434,-0.46313 0.89172,-0.80877 0.20737,-0.35945 0.31106,-0.8295 0.31107,-1.41017 -1e-5,-0.53917 -0.1037,-0.98848 -0.31107,-1.34795 -0.20738,-0.35944 -0.4908,-0.64286 -0.85024,-0.85024 -0.34564,-0.20737 -0.76039,-0.35253 -1.24427,-0.4355 -0.47006,-0.0829 -0.97468,-0.12441 -1.51385,-0.12442"
         style=""
         id="path7351" />
    </g>
  </g>
</svg>
